<svg width="443" height="443" viewBox="0 0 443 443" fill="none" xmlns="http://www.w3.org/2000/svg">
<path d="M361.839 124.901C369.454 122.861 376.187 118.372 381.001 112.128C385.812 105.884 388.437 98.2297 388.471 90.3462V90.2525C388.471 80.7776 384.708 71.6908 378.007 64.9911C371.307 58.2914 362.22 54.5276 352.746 54.5276H352.655C344.771 54.5621 337.119 57.188 330.876 62.0005C324.634 66.8129 320.145 73.5451 318.106 81.1593C312.269 102.3 299.658 120.943 282.209 134.228C264.759 147.514 243.433 154.708 221.501 154.708C199.569 154.708 178.243 147.514 160.793 134.228C143.343 120.943 130.733 102.3 124.897 81.1593C122.855 73.5457 118.367 66.8145 112.123 62.0032C105.879 57.1918 98.2262 54.5671 90.3437 54.5336H90.25C80.7754 54.5336 71.6884 58.2974 64.9887 64.9971C58.289 71.6968 54.5251 80.7836 54.5251 90.2585V90.3522C54.56 98.2346 57.1859 105.887 61.9984 112.13C66.8109 118.373 73.5429 122.861 81.1569 124.901C102.298 130.737 120.941 143.348 134.226 160.798C147.511 178.247 154.706 199.574 154.706 221.505C154.706 243.437 147.511 264.763 134.226 282.214C120.941 299.664 102.298 312.274 81.1569 318.11C73.5433 320.151 66.8119 324.638 61.9998 330.881C57.1877 337.123 54.562 344.776 54.5271 352.657V352.751C54.5271 362.226 58.291 371.312 64.9907 378.013C71.6906 384.712 80.7772 388.475 90.252 388.475H90.3457C98.2284 388.442 105.881 385.814 112.124 381.003C118.367 376.189 122.854 369.458 124.895 361.844C130.731 340.703 143.341 322.061 160.791 308.776C178.241 295.489 199.567 288.295 221.499 288.295C243.431 288.295 264.757 295.489 282.207 308.776C299.656 322.061 312.267 340.703 318.104 361.844C320.143 369.458 324.632 376.191 330.874 381.005C337.117 385.816 344.771 388.444 352.655 388.477H352.748C362.222 388.477 371.309 384.712 378.009 378.013C384.708 371.314 388.473 362.226 388.473 352.753V352.657C388.439 344.774 385.812 337.122 381.001 330.879C376.187 324.636 369.456 320.149 361.841 318.108C340.701 312.272 322.058 299.662 308.773 282.212C295.486 264.761 288.293 243.435 288.293 221.503C288.293 199.572 295.486 178.246 308.773 160.796C322.058 143.346 340.701 130.735 361.841 124.899L361.839 124.901Z" fill="#AF51C5"/>
<path d="M361.839 124.901C369.454 122.861 376.187 118.372 381.001 112.128C385.812 105.884 388.437 98.2297 388.471 90.3462V90.2525C388.471 80.7776 384.708 71.6908 378.007 64.9911C371.307 58.2914 362.22 54.5276 352.746 54.5276H352.655C344.771 54.5621 337.119 57.188 330.876 62.0005C324.634 66.8129 320.145 73.5451 318.106 81.1593C312.269 102.3 299.658 120.943 282.209 134.228C264.759 147.514 243.433 154.708 221.501 154.708C199.569 154.708 178.243 147.514 160.793 134.228C143.343 120.943 130.733 102.3 124.897 81.1593C122.855 73.5457 118.367 66.8145 112.123 62.0032C105.879 57.1918 98.2262 54.5671 90.3437 54.5336H90.25C80.7754 54.5336 71.6884 58.2974 64.9887 64.9971C58.289 71.6968 54.5251 80.7836 54.5251 90.2585V90.3522C54.56 98.2346 57.1859 105.887 61.9984 112.13C66.8109 118.373 73.5429 122.861 81.1569 124.901C102.298 130.737 120.941 143.348 134.226 160.798C147.511 178.247 154.706 199.574 154.706 221.505C154.706 243.437 147.511 264.763 134.226 282.214C120.941 299.664 102.298 312.274 81.1569 318.11C73.5433 320.151 66.8119 324.638 61.9998 330.881C57.1877 337.123 54.562 344.776 54.5271 352.657V352.751C54.5271 362.226 58.291 371.312 64.9907 378.013C71.6906 384.712 80.7772 388.475 90.252 388.475H90.3457C98.2284 388.442 105.881 385.814 112.124 381.003C118.367 376.189 122.854 369.458 124.895 361.844C130.731 340.703 143.341 322.061 160.791 308.776C178.241 295.489 199.567 288.295 221.499 288.295C243.431 288.295 264.757 295.489 282.207 308.776C299.656 322.061 312.267 340.703 318.104 361.844C320.143 369.458 324.632 376.191 330.874 381.005C337.117 385.816 344.771 388.444 352.655 388.477H352.748C362.222 388.477 371.309 384.712 378.009 378.013C384.708 371.314 388.473 362.226 388.473 352.753V352.657C388.439 344.774 385.812 337.122 381.001 330.879C376.187 324.636 369.456 320.149 361.841 318.108C340.701 312.272 322.058 299.662 308.773 282.212C295.486 264.761 288.293 243.435 288.293 221.503C288.293 199.572 295.486 178.246 308.773 160.796C322.058 143.346 340.701 130.735 361.841 124.899L361.839 124.901Z" fill="url(#paint0_linear_5175_13)"/>
<path d="M46.7461 21.1573C47.8952 22.3002 49.372 23.0566 50.971 23.3213C52.57 23.586 54.2116 23.3459 55.6679 22.6343C68.9542 16.2178 83.9038 14.0808 98.4557 16.5176C113.008 18.9545 126.445 25.8454 136.916 36.2401C138.36 37.6946 140.311 38.5334 142.359 38.5802C144.408 38.6271 146.395 37.8784 147.903 36.4913C148.653 35.7759 149.252 34.918 149.665 33.9678C150.078 33.0177 150.297 31.9945 150.309 30.9585C150.321 29.9224 150.126 28.8944 149.735 27.9349C149.344 26.9754 148.766 26.1037 148.033 25.371C135.264 12.6334 118.847 4.18552 101.06 1.19924C83.2733 -1.78703 64.9979 0.836389 48.7693 8.70554C47.6644 9.25342 46.7059 10.0569 45.9735 11.0492C45.2412 12.0416 44.7561 13.1942 44.5581 14.4116C44.3604 15.629 44.4557 16.8759 44.8362 18.0491C45.2167 19.2222 45.8715 20.2878 46.7461 21.1573Z" fill="#AF51C5"/>
<path d="M46.7461 21.1573C47.8952 22.3002 49.372 23.0566 50.971 23.3213C52.57 23.586 54.2116 23.3459 55.6679 22.6343C68.9542 16.2178 83.9038 14.0808 98.4557 16.5176C113.008 18.9545 126.445 25.8454 136.916 36.2401C138.36 37.6946 140.311 38.5334 142.359 38.5802C144.408 38.6271 146.395 37.8784 147.903 36.4913C148.653 35.7759 149.252 34.918 149.665 33.9678C150.078 33.0177 150.297 31.9945 150.309 30.9585C150.321 29.9224 150.126 28.8944 149.735 27.9349C149.344 26.9754 148.766 26.1037 148.033 25.371C135.264 12.6334 118.847 4.18552 101.06 1.19924C83.2733 -1.78703 64.9979 0.836389 48.7693 8.70554C47.6644 9.25342 46.7059 10.0569 45.9735 11.0492C45.2412 12.0416 44.7561 13.1942 44.5581 14.4116C44.3604 15.629 44.4557 16.8759 44.8362 18.0491C45.2167 19.2222 45.8715 20.2878 46.7461 21.1573Z" fill="url(#paint1_linear_5175_13)"/>
<path d="M8.73563 48.7093C0.876077 64.8857 -1.76976 83.1024 1.16316 100.846C4.09607 118.59 12.4632 134.987 25.1101 147.774C26.44 149.171 28.231 150.04 30.1519 150.219C32.0725 150.398 33.9932 149.876 35.5587 148.748C36.4455 148.078 37.1784 147.226 37.7078 146.248C38.2372 145.271 38.551 144.191 38.6275 143.082C38.7043 141.973 38.5422 140.861 38.1525 139.82C37.7627 138.779 37.1541 137.834 36.368 137.048C25.92 126.574 18.9877 113.111 16.5317 98.5225C14.0757 83.934 16.2176 68.9428 22.6604 55.6259C23.3774 54.168 23.6216 52.5228 23.3589 50.9197C23.0964 49.3163 22.3399 47.8351 21.1954 46.6822C20.3252 45.8068 19.2589 45.1516 18.0848 44.7709C16.9107 44.3904 15.6628 44.2951 14.4446 44.4932C13.2263 44.6916 12.0729 45.1773 11.08 45.9106C10.0872 46.6437 9.28345 47.6033 8.73563 48.7093Z" fill="#AF51C5"/>
<path d="M8.73563 48.7093C0.876077 64.8857 -1.76976 83.1024 1.16316 100.846C4.09607 118.59 12.4632 134.987 25.1101 147.774C26.44 149.171 28.231 150.04 30.1519 150.219C32.0725 150.398 33.9932 149.876 35.5587 148.748C36.4455 148.078 37.1784 147.226 37.7078 146.248C38.2372 145.271 38.551 144.191 38.6275 143.082C38.7043 141.973 38.5422 140.861 38.1525 139.82C37.7627 138.779 37.1541 137.834 36.368 137.048C25.92 126.574 18.9877 113.111 16.5317 98.5225C14.0757 83.934 16.2176 68.9428 22.6604 55.6259C23.3774 54.168 23.6216 52.5228 23.3589 50.9197C23.0964 49.3163 22.3399 47.8351 21.1954 46.6822C20.3252 45.8068 19.2589 45.1516 18.0848 44.7709C16.9107 44.3904 15.6628 44.2951 14.4446 44.4932C13.2263 44.6916 12.0729 45.1773 11.08 45.9106C10.0872 46.6437 9.28345 47.6033 8.73563 48.7093Z" fill="url(#paint2_linear_5175_13)"/>
<path d="M387.336 420.358C374.046 426.776 359.092 428.913 344.536 426.471C329.981 424.031 316.54 417.135 306.07 406.734C304.629 405.287 302.685 404.452 300.644 404.406C298.601 404.358 296.622 405.103 295.117 406.485C294.364 407.198 293.762 408.057 293.345 409.008C292.93 409.959 292.709 410.983 292.695 412.022C292.681 413.06 292.877 414.091 293.267 415.052C293.658 416.014 294.238 416.887 294.972 417.621C307.74 430.358 324.157 438.805 341.944 441.793C359.73 444.779 378.006 442.156 394.235 434.286C395.339 433.738 396.298 432.935 397.032 431.942C397.763 430.95 398.248 429.798 398.445 428.58C398.642 427.362 398.546 426.114 398.166 424.942C397.785 423.768 397.129 422.704 396.254 421.835C395.106 420.693 393.629 419.937 392.031 419.672C390.434 419.407 388.792 419.646 387.336 420.358Z" fill="#AF51C5"/>
<path d="M387.336 420.358C374.046 426.776 359.092 428.913 344.536 426.471C329.981 424.031 316.54 417.135 306.07 406.734C304.629 405.287 302.685 404.452 300.644 404.406C298.601 404.358 296.622 405.103 295.117 406.485C294.364 407.198 293.762 408.057 293.345 409.008C292.93 409.959 292.709 410.983 292.695 412.022C292.681 413.06 292.877 414.091 293.267 415.052C293.658 416.014 294.238 416.887 294.972 417.621C307.74 430.358 324.157 438.805 341.944 441.793C359.73 444.779 378.006 442.156 394.235 434.286C395.339 433.738 396.298 432.935 397.032 431.942C397.763 430.95 398.248 429.798 398.445 428.58C398.642 427.362 398.546 426.114 398.166 424.942C397.785 423.768 397.129 422.704 396.254 421.835C395.106 420.693 393.629 419.937 392.031 419.672C390.434 419.407 388.792 419.646 387.336 420.358Z" fill="url(#paint3_linear_5175_13)"/>
<path d="M406.489 295.11C405.108 296.615 404.362 298.594 404.41 300.637C404.456 302.678 405.291 304.623 406.738 306.063C417.147 316.541 424.046 329.993 426.479 344.56C428.915 359.129 426.766 374.092 420.332 387.387C419.619 388.844 419.377 390.486 419.641 392.087C419.906 393.687 420.661 395.166 421.805 396.317C422.674 397.192 423.739 397.845 424.911 398.228C426.083 398.609 427.328 398.704 428.546 398.507C429.762 398.31 430.916 397.827 431.907 397.096C432.9 396.364 433.705 395.408 434.253 394.303C442.146 378.07 444.787 359.782 441.809 341.981C438.831 324.177 430.382 307.745 417.635 294.964C416.902 294.229 416.027 293.649 415.064 293.256C414.101 292.863 413.071 292.668 412.032 292.682C410.992 292.696 409.967 292.917 409.015 293.336C408.062 293.752 407.205 294.354 406.489 295.11Z" fill="#AF51C5"/>
<path d="M406.489 295.11C405.108 296.615 404.362 298.594 404.41 300.637C404.456 302.678 405.291 304.623 406.738 306.063C417.147 316.541 424.046 329.993 426.479 344.56C428.915 359.129 426.766 374.092 420.332 387.387C419.619 388.844 419.377 390.486 419.641 392.087C419.906 393.687 420.661 395.166 421.805 396.317C422.674 397.192 423.739 397.845 424.911 398.228C426.083 398.609 427.328 398.704 428.546 398.507C429.762 398.31 430.916 397.827 431.907 397.096C432.9 396.364 433.705 395.408 434.253 394.303C442.146 378.07 444.787 359.782 441.809 341.981C438.831 324.177 430.382 307.745 417.635 294.964C416.902 294.229 416.027 293.649 415.064 293.256C414.101 292.863 413.071 292.668 412.032 292.682C410.992 292.696 409.967 292.917 409.015 293.336C408.062 293.752 407.205 294.354 406.489 295.11Z" fill="url(#paint4_linear_5175_13)"/>
<path d="M420.346 55.6408C426.774 68.9332 428.917 83.8931 426.479 98.4553C424.042 113.018 417.143 126.464 406.738 136.939C405.291 138.379 404.456 140.323 404.41 142.364C404.362 144.406 405.108 146.386 406.489 147.89C407.203 148.643 408.062 149.246 409.013 149.662C409.963 150.078 410.988 150.3 412.026 150.313C413.065 150.327 414.093 150.133 415.056 149.742C416.017 149.351 416.892 148.772 417.625 148.038C430.368 135.263 438.819 118.837 441.801 101.041C444.785 83.2456 442.154 64.9624 434.273 48.7302C433.725 47.6258 432.92 46.6682 431.927 45.9367C430.934 45.205 429.782 44.7206 428.564 44.5237C427.348 44.3268 426.101 44.4226 424.929 44.8038C423.755 45.1849 422.69 45.84 421.821 46.7151C420.679 47.865 419.922 49.3426 419.656 50.9421C419.393 52.5419 419.635 54.1842 420.346 55.6408Z" fill="#AF51C5"/>
<path d="M420.346 55.6408C426.774 68.9332 428.917 83.8931 426.479 98.4553C424.042 113.018 417.143 126.464 406.738 136.939C405.291 138.379 404.456 140.323 404.41 142.364C404.362 144.406 405.108 146.386 406.489 147.89C407.203 148.643 408.062 149.246 409.013 149.662C409.963 150.078 410.988 150.3 412.026 150.313C413.065 150.327 414.093 150.133 415.056 149.742C416.017 149.351 416.892 148.772 417.625 148.038C430.368 135.263 438.819 118.837 441.801 101.041C444.785 83.2456 442.154 64.9624 434.273 48.7302C433.725 47.6258 432.92 46.6682 431.927 45.9367C430.934 45.205 429.782 44.7206 428.564 44.5237C427.348 44.3268 426.101 44.4226 424.929 44.8038C423.755 45.1849 422.69 45.84 421.821 46.7151C420.679 47.865 419.922 49.3426 419.656 50.9421C419.393 52.5419 419.635 54.1842 420.346 55.6408Z" fill="url(#paint5_linear_5175_13)"/>
<path d="M306.068 36.2603C316.542 25.8541 329.989 18.9561 344.551 16.5183C359.114 14.0805 374.073 16.2231 387.366 22.6504C388.823 23.3638 390.466 23.6052 392.064 23.3411C393.665 23.0772 395.142 22.3207 396.292 21.1774C397.167 20.3085 397.823 19.2435 398.203 18.0707C398.584 16.8979 398.68 15.6512 398.483 14.4339C398.287 13.2166 397.803 12.0638 397.071 11.0711C396.34 10.0784 395.381 9.27437 394.277 8.72571C378.044 0.844234 359.762 -1.78758 341.966 1.19569C324.17 4.17896 307.744 12.6292 294.969 25.3732C294.236 26.1073 293.656 26.9807 293.265 27.9423C292.874 28.904 292.679 29.9341 292.693 30.972C292.707 32.0101 292.928 33.0348 293.343 33.9858C293.759 34.937 294.361 35.795 295.115 36.5094C296.62 37.8899 298.599 38.6348 300.642 38.5884C302.683 38.5419 304.627 37.7078 306.068 36.2603Z" fill="#AF51C5"/>
<path d="M306.068 36.2603C316.542 25.8541 329.989 18.9561 344.551 16.5183C359.114 14.0805 374.073 16.2231 387.366 22.6504C388.823 23.3638 390.466 23.6052 392.064 23.3411C393.665 23.0772 395.142 22.3207 396.292 21.1774C397.167 20.3085 397.823 19.2435 398.203 18.0707C398.584 16.8979 398.68 15.6512 398.483 14.4339C398.287 13.2166 397.803 12.0638 397.071 11.0711C396.34 10.0784 395.381 9.27437 394.277 8.72571C378.044 0.844234 359.762 -1.78758 341.966 1.19569C324.17 4.17896 307.744 12.6292 294.969 25.3732C294.236 26.1073 293.656 26.9807 293.265 27.9423C292.874 28.904 292.679 29.9341 292.693 30.972C292.707 32.0101 292.928 33.0348 293.343 33.9858C293.759 34.937 294.361 35.795 295.115 36.5094C296.62 37.8899 298.599 38.6348 300.642 38.5884C302.683 38.5419 304.627 37.7078 306.068 36.2603Z" fill="url(#paint6_linear_5175_13)"/>
<path d="M136.935 406.736C126.46 417.14 113.013 424.039 98.4508 426.477C83.8884 428.914 68.9287 426.772 55.6361 420.344C54.1797 419.632 52.5372 419.391 50.9377 419.654C49.3379 419.919 47.8603 420.676 46.7104 421.819C45.8355 422.688 45.1804 423.752 44.7993 424.926C44.4182 426.098 44.3221 427.346 44.519 428.562C44.7161 429.78 45.2005 430.932 45.932 431.924C46.6635 432.917 47.6213 433.722 48.7255 434.27C64.9577 442.152 83.241 444.783 101.037 441.799C118.833 438.817 135.258 430.366 148.033 417.623C148.767 416.889 149.346 416.014 149.737 415.053C150.128 414.093 150.322 413.062 150.309 412.024C150.295 410.985 150.073 409.961 149.657 409.01C149.241 408.059 148.638 407.2 147.885 406.486C146.382 405.105 144.401 404.36 142.36 404.406C140.318 404.453 138.374 405.287 136.935 406.736Z" fill="#AF51C5"/>
<path d="M136.935 406.736C126.46 417.14 113.013 424.039 98.4508 426.477C83.8884 428.914 68.9287 426.772 55.6361 420.344C54.1797 419.632 52.5372 419.391 50.9377 419.654C49.3379 419.919 47.8603 420.676 46.7104 421.819C45.8355 422.688 45.1804 423.752 44.7993 424.926C44.4182 426.098 44.3221 427.346 44.519 428.562C44.7161 429.78 45.2005 430.932 45.932 431.924C46.6635 432.917 47.6213 433.722 48.7255 434.27C64.9577 442.152 83.241 444.783 101.037 441.799C118.833 438.817 135.258 430.366 148.033 417.623C148.767 416.889 149.346 416.014 149.737 415.053C150.128 414.093 150.322 413.062 150.309 412.024C150.295 410.985 150.073 409.961 149.657 409.01C149.241 408.059 148.638 407.2 147.885 406.486C146.382 405.105 144.401 404.36 142.36 404.406C140.318 404.453 138.374 405.287 136.935 406.736Z" fill="url(#paint7_linear_5175_13)"/>
<path d="M22.6525 387.355C16.2243 374.062 14.081 359.103 16.5185 344.54C18.956 329.977 25.8541 316.531 36.2604 306.057C37.7077 304.615 38.5421 302.672 38.5885 300.631C38.6349 298.588 37.8899 296.609 36.5095 295.104C35.795 294.35 34.9369 293.748 33.9859 293.332C33.0347 292.917 32.01 292.696 30.9721 292.682C29.9342 292.668 28.9039 292.863 27.9424 293.254C26.9808 293.645 26.1072 294.225 25.3733 294.958C12.6293 307.733 4.17894 324.159 1.19569 341.955C-1.78758 359.751 0.844234 378.033 8.72571 394.266C9.27435 395.37 10.0784 396.329 11.0711 397.06C12.0638 397.792 13.2166 398.276 14.4339 398.471C15.6512 398.669 16.898 398.573 18.0707 398.192C19.2435 397.812 20.3085 397.156 21.1775 396.281C22.3206 395.131 23.0769 393.654 23.3414 392.053C23.6057 390.454 23.3649 388.812 22.6525 387.355Z" fill="#AF51C5"/>
<path d="M22.6525 387.355C16.2243 374.062 14.081 359.103 16.5185 344.54C18.956 329.977 25.8541 316.531 36.2604 306.057C37.7077 304.615 38.5421 302.672 38.5885 300.631C38.6349 298.588 37.8899 296.609 36.5095 295.104C35.795 294.35 34.9369 293.748 33.9859 293.332C33.0347 292.917 32.01 292.696 30.9721 292.682C29.9342 292.668 28.9039 292.863 27.9424 293.254C26.9808 293.645 26.1072 294.225 25.3733 294.958C12.6293 307.733 4.17894 324.159 1.19569 341.955C-1.78758 359.751 0.844234 378.033 8.72571 394.266C9.27435 395.37 10.0784 396.329 11.0711 397.06C12.0638 397.792 13.2166 398.276 14.4339 398.471C15.6512 398.669 16.898 398.573 18.0707 398.192C19.2435 397.812 20.3085 397.156 21.1775 396.281C22.3206 395.131 23.0769 393.654 23.3414 392.053C23.6057 390.454 23.3649 388.812 22.6525 387.355Z" fill="url(#paint8_linear_5175_13)"/>
<defs>
<linearGradient id="paint0_linear_5175_13" x1="163.421" y1="-90.6679" x2="319.816" y2="574.599" gradientUnits="userSpaceOnUse">
<stop stop-color="#2F79CB"/>
<stop offset="1" stop-color="#AF51C5"/>
</linearGradient>
<linearGradient id="paint1_linear_5175_13" x1="78.9746" y1="-16.7749" x2="85.8739" y2="63.742" gradientUnits="userSpaceOnUse">
<stop stop-color="#2F79CB"/>
<stop offset="1" stop-color="#AF51C5"/>
</linearGradient>
<linearGradient id="paint2_linear_5175_13" x1="12.6019" y1="-1.63384" x2="113.902" y2="155.675" gradientUnits="userSpaceOnUse">
<stop stop-color="#2F79CB"/>
<stop offset="1" stop-color="#AF51C5"/>
</linearGradient>
<linearGradient id="paint3_linear_5175_13" x1="327.211" y1="387.626" x2="334.112" y2="468.156" gradientUnits="userSpaceOnUse">
<stop stop-color="#2F79CB"/>
<stop offset="1" stop-color="#AF51C5"/>
</linearGradient>
<linearGradient id="paint4_linear_5175_13" x1="416.992" y1="246.626" x2="518.439" y2="403.846" gradientUnits="userSpaceOnUse">
<stop stop-color="#2F79CB"/>
<stop offset="1" stop-color="#AF51C5"/>
</linearGradient>
<linearGradient id="paint5_linear_5175_13" x1="416.992" y1="-1.61501" x2="518.392" y2="155.577" gradientUnits="userSpaceOnUse">
<stop stop-color="#2F79CB"/>
<stop offset="1" stop-color="#AF51C5"/>
</linearGradient>
<linearGradient id="paint6_linear_5175_13" x1="327.222" y1="-16.7784" x2="334.121" y2="63.7557" gradientUnits="userSpaceOnUse">
<stop stop-color="#2F79CB"/>
<stop offset="1" stop-color="#AF51C5"/>
</linearGradient>
<linearGradient id="paint7_linear_5175_13" x1="78.9487" y1="387.625" x2="85.8487" y2="468.161" gradientUnits="userSpaceOnUse">
<stop stop-color="#2F79CB"/>
<stop offset="1" stop-color="#AF51C5"/>
</linearGradient>
<linearGradient id="paint8_linear_5175_13" x1="12.5838" y1="246.642" x2="113.984" y2="403.836" gradientUnits="userSpaceOnUse">
<stop stop-color="#2F79CB"/>
<stop offset="1" stop-color="#AF51C5"/>
</linearGradient>
</defs>
</svg>
